<?xml version="1.0" encoding="UTF-8"?>
<svg id="_图层_1" data-name="图层 1" xmlns="http://www.w3.org/2000/svg" viewBox="0 0 500 500">
  <defs>
    <style>
      .cls-1 {
        fill: #fff;
      }

      .cls-2 {
        fill: #662d91;
      }

      .cls-3 {
        fill: #bf1191;
      }
    </style>
  </defs>
  <g id="_图层_2-2" data-name=" 图层 2-2">
    <circle class="cls-2" cx="105.18" cy="316.84" r="22.28"/>
    <circle class="cls-2" cx="412.64" cy="165.34" r="22.28"/>
    <rect class="cls-3" x="87.55" y="229.96" width="342.76" height="22.28" transform="translate(-79.9 139.27) rotate(-26.23)"/>
    <rect class="cls-1" x="87.55" y="238.84" width="342.76" height="4.46" transform="translate(-79.9 139.32) rotate(-26.24)"/>
    <circle class="cls-3" cx="412.64" cy="165.34" r="22.28"/>
    <circle class="cls-3" cx="105.18" cy="316.84" r="22.28"/>
  </g>
  <g id="_图层_1-2" data-name=" 图层 1">
    <g>
      <path class="cls-2" d="M261.14,220.1v-36.94h66.84c2.5,0,4.9.18,7.31.4l51.6-25.44c.22-.76.53-1.43.8-2.14-17.24-11.01-37.74-17.38-59.71-17.38h-111.4v103.47l44.56-21.97Z"/>
      <path class="cls-2" d="M412.64,192.07c-3.52,0-6.91-.71-9.98-1.96l-26.87,13.23c11.76,12.03,19.03,28.52,19.03,46.61,0,36.85-29.99,66.84-66.84,66.84h-66.84v-56.99l-44.56,21.97v79.58h111.4c61.54,0,111.4-49.86,111.4-111.4,0-21.97-6.37-42.42-17.33-59.67-2.94,1.11-6.1,1.74-9.4,1.74v.04Z"/>
      <path class="cls-2" d="M130.89,324.01c-3.16,11.27-13.46,19.56-25.71,19.56-14.75,0-26.74-11.99-26.74-26.74s11.99-26.74,26.74-26.74v-151.5h-44.56v178.24h0v.18c0,24.51,19.87,44.38,44.38,44.38h67.02v-44.56h-26.51l-14.62,7.17Z"/>
    </g>
  </g>
</svg>