<!DOCTYPE svg PUBLIC "-//W3C//DTD SVG 1.1//EN" "http://www.w3.org/Graphics/SVG/1.1/DTD/svg11.dtd">
<!-- Uploaded to: SVG Repo, www.svgrepo.com, Transformed by: SVG Repo Mixer Tools -->
<svg width="204px" height="204px" viewBox="0 0 64.00 64.00" xmlns="http://www.w3.org/2000/svg" stroke-width="0.00064" stroke="#000000" fill="none" transform="rotate(0)">
<g id="SVGRepo_bgCarrier" stroke-width="0"/>
<g id="SVGRepo_tracerCarrier" stroke-linecap="round" stroke-linejoin="round" stroke="#000000" stroke-width="3.2">
<polygon points="25.15 7.74 50.81 7.74 50.81 56.26 13.19 56.26 13.19 20.6 25.15 7.74" stroke-linecap="round"/>
<polyline points="25.17 7.74 25.15 20.6 13.19 20.6"/>
<line x1="18.34" y1="47.67" x2="35.35" y2="47.67"/>
<line x1="18.34" y1="41.14" x2="45.35" y2="41.14"/>
<line x1="18.34" y1="35.04" x2="45.35" y2="35.04"/>
<line x1="18.34" y1="28.94" x2="45.35" y2="28.94"/>
</g>
<g id="SVGRepo_iconCarrier">
<polygon points="25.15 7.74 50.81 7.74 50.81 56.26 13.19 56.26 13.19 20.6 25.15 7.74" stroke-linecap="round"/>
<polyline points="25.17 7.74 25.15 20.6 13.19 20.6"/>
<line x1="18.34" y1="47.67" x2="35.35" y2="47.67"/>
<line x1="18.34" y1="41.14" x2="45.35" y2="41.14"/>
<line x1="18.34" y1="35.04" x2="45.35" y2="35.04"/>
<line x1="18.34" y1="28.94" x2="45.35" y2="28.94"/>
</g>
</svg>