<svg xmlns="http://www.w3.org/2000/svg" xmlns:xlink="http://www.w3.org/1999/xlink" width="512" height="487" viewBox="0 0 512 487" fill="none"><path d="M85.3333 401.775L85.3333 0C38.205 0 0 38.1565 0 85.225L0 409.08C0 452.114 34.9303 487 78.019 487C78.5836 487 79.1333 486.936 79.6611 486.816C81.5359 486.939 83.4273 487 85.3333 487L268.19 487C272.18 487 276.169 486.902 280.154 486.706C284.139 486.511 288.117 486.218 292.089 485.827C296.059 485.436 300.019 484.95 303.964 484.365C307.911 483.78 311.841 483.099 315.756 482.322C319.669 481.544 323.561 480.671 327.431 479.702C331.301 478.733 335.146 477.672 338.964 476.515C342.783 475.358 346.57 474.109 350.327 472.767C354.084 471.423 357.806 469.99 361.491 468.465C365.179 466.94 368.826 465.326 372.433 463.621C376.04 461.918 379.603 460.126 383.121 458.248C386.64 456.369 390.111 454.406 393.533 452.357C396.956 450.308 400.326 448.176 403.643 445.964C406.961 443.749 410.223 441.455 413.427 439.081C416.633 436.708 419.777 434.256 422.861 431.727C425.946 429.201 428.966 426.598 431.923 423.922C434.879 421.245 437.769 418.498 440.59 415.681C443.411 412.863 446.161 409.978 448.841 407.024C451.521 404.072 454.126 401.055 456.657 397.975C459.189 394.894 461.643 391.754 464.02 388.554C466.396 385.352 468.694 382.095 470.91 378.782C473.127 375.467 475.261 372.102 477.313 368.685C479.363 365.266 481.33 361.799 483.21 358.285C485.091 354.771 486.886 351.212 488.594 347.61C490.296 344.007 491.911 340.365 493.44 336.684C494.967 333.001 496.404 329.285 497.749 325.532C499.094 321.78 500.346 317.998 501.504 314.184C502.661 310.37 503.724 306.531 504.691 302.666C505.663 298.8 506.537 294.913 507.313 291.005C508.093 287.095 508.776 283.17 509.36 279.228C509.946 275.287 510.433 271.334 510.823 267.368C511.217 263.401 511.511 259.429 511.707 255.448C511.901 251.468 512 247.484 512 243.501C512 239.516 511.901 235.532 511.707 231.552C511.511 227.571 511.217 223.599 510.823 219.632C510.433 215.666 509.946 211.713 509.36 207.772C508.776 203.83 508.093 199.905 507.313 195.995C506.537 192.087 505.663 188.2 504.691 184.334C503.724 180.469 502.661 176.63 501.504 172.816C500.346 169.002 499.094 165.219 497.749 161.468C496.404 157.715 494.967 153.999 493.44 150.316C491.911 146.635 490.296 142.993 488.594 139.39C486.886 135.788 485.091 132.229 483.21 128.715C481.33 125.2 479.363 121.734 477.313 118.316C475.261 114.898 473.127 111.532 470.91 108.219C468.694 104.905 466.396 101.648 464.02 98.4471C461.643 95.2463 459.189 92.1057 456.657 89.0255C454.126 85.9445 451.521 82.9282 448.841 79.9751C446.161 77.0227 443.411 74.1373 440.59 71.3193C437.769 68.5014 434.879 65.7548 431.923 63.0787C428.966 60.4021 425.946 57.8 422.861 55.2721C419.777 52.7437 416.633 50.2927 413.427 47.919C410.223 45.5453 406.961 43.2512 403.643 41.037C400.326 38.8233 396.956 36.692 393.533 34.6434C390.111 32.5943 386.64 30.6305 383.121 28.7519C379.603 26.8737 376.04 25.0826 372.433 23.3784C368.825 21.6747 365.178 20.0603 361.491 18.5352C357.806 17.0101 354.084 15.5762 350.327 14.2338C346.57 12.8913 342.783 11.6417 338.964 10.4851C335.146 9.32807 331.301 8.26543 327.431 7.29709C323.561 6.32917 319.669 5.45644 315.756 4.67886C311.841 3.90127 307.911 3.22008 303.964 2.63527C300.019 2.05088 296.059 1.56327 292.089 1.17245C288.117 0.78205 284.139 0.489032 280.154 0.293422C276.169 0.0978109 272.18 0 268.19 0L195.047 0L195.047 401.775L85.3333 401.775ZM436 238.999C436 330.013 362.158 403.816 271 403.999L271 73.9999C362.158 74.1828 436 147.985 436 238.999Z" fill-rule="evenodd"  fill="#FFFFFF" ></path></svg>