<svg xmlns="http://www.w3.org/2000/svg" xmlns:xlink="http://www.w3.org/1999/xlink" width="512" height="487" viewBox="0 0 512 487" fill="none"><path d="M85.3333 0L85.3333 401.775L195.047 401.775L195.047 0L268.19 0C272.18 0 276.169 0.0978109 280.154 0.293422C284.139 0.489032 288.117 0.78205 292.089 1.17245C296.059 1.56327 300.019 2.05088 303.964 2.63527C307.911 3.22008 311.841 3.90127 315.756 4.67886C319.669 5.45644 323.561 6.32917 327.431 7.29709C331.301 8.26543 335.146 9.32807 338.964 10.4851C342.783 11.6417 346.57 12.8913 350.327 14.2338C354.084 15.5762 357.806 17.0101 361.491 18.5352C365.178 20.0603 368.825 21.6747 372.433 23.3784C376.04 25.0826 379.603 26.8737 383.121 28.7519C386.64 30.6305 390.111 32.5943 393.533 34.6434C396.956 36.692 400.326 38.8233 403.643 41.037C406.961 43.2512 410.223 45.5453 413.427 47.919C416.633 50.2927 419.777 52.7437 422.861 55.2721C425.946 57.8 428.966 60.4021 431.923 63.0787C434.879 65.7548 437.769 68.5014 440.59 71.3193C443.411 74.1373 446.161 77.0227 448.841 79.9751C451.521 82.9282 454.126 85.9445 456.657 89.0255C459.189 92.1057 461.643 95.2463 464.02 98.4471C466.396 101.648 468.694 104.905 470.91 108.219C473.127 111.532 475.261 114.898 477.313 118.316C479.363 121.734 481.33 125.2 483.21 128.715C485.091 132.229 486.886 135.788 488.594 139.39C490.296 142.993 491.911 146.635 493.44 150.316C494.967 153.999 496.404 157.715 497.749 161.468C499.094 165.219 500.346 169.002 501.504 172.816C502.661 176.63 503.724 180.469 504.691 184.334C505.663 188.2 506.537 192.087 507.313 195.995C508.093 199.905 508.776 203.83 509.36 207.772C509.946 211.713 510.433 215.666 510.823 219.632C511.217 223.599 511.511 227.571 511.707 231.552C511.901 235.532 512 239.516 512 243.501C512 247.484 511.901 251.468 511.707 255.448C511.511 259.429 511.217 263.401 510.823 267.368C510.433 271.334 509.946 275.287 509.36 279.228C508.776 283.17 508.093 287.095 507.313 291.005C506.537 294.913 505.663 298.8 504.691 302.666C503.724 306.531 502.661 310.37 501.504 314.184C500.346 317.998 499.094 321.78 497.749 325.532C496.404 329.285 494.967 333.001 493.44 336.684C491.911 340.365 490.296 344.007 488.594 347.61C486.886 351.212 485.091 354.771 483.21 358.285C481.33 361.799 479.363 365.266 477.313 368.685C475.261 372.102 473.127 375.467 470.91 378.782C468.694 382.095 466.396 385.352 464.02 388.554C461.643 391.754 459.189 394.894 456.657 397.975C454.126 401.055 451.521 404.072 448.841 407.024C446.161 409.978 443.411 412.863 440.59 415.681C437.769 418.498 434.879 421.245 431.923 423.922C428.966 426.598 425.946 429.201 422.861 431.727C419.777 434.256 416.633 436.708 413.427 439.081C410.223 441.455 406.961 443.749 403.643 445.964C400.326 448.176 396.956 450.308 393.533 452.357C390.111 454.406 386.64 456.369 383.121 458.248C379.603 460.126 376.04 461.918 372.433 463.621C368.826 465.326 365.179 466.94 361.491 468.465C357.806 469.99 354.084 471.423 350.327 472.767C346.57 474.109 342.783 475.358 338.964 476.515C335.146 477.672 331.301 478.733 327.431 479.702C323.561 480.671 319.669 481.544 315.756 482.322C311.841 483.099 307.911 483.78 303.964 484.365C300.019 484.95 296.059 485.436 292.089 485.827C288.117 486.218 284.139 486.511 280.154 486.706C276.169 486.902 272.18 487 268.19 487L250.109 487C250.041 487 249.973 487 249.904 487L85.3333 487C83.4273 487 81.5359 486.939 79.6611 486.816C79.1333 486.936 78.5836 487 78.019 487C34.9303 487 0 452.114 0 409.08L0 85.225C0 38.1565 38.205 0 85.3333 0Z" fill-rule="evenodd"  fill="#FFFFFF" ></path></svg>